<svg id="Capa_1" enable-background="new 0 0 512.001 512.001" height="512" viewBox="0 0 512.001 512.001" width="512" xmlns="http://www.w3.org/2000/svg"><g><g><g><g><path d="m10 429.496v-32.609c0-10.988 8.908-19.896 19.896-19.896h452.209c10.988 0 19.896 8.908 19.896 19.896v32.609z" fill="#d0f2d2"/></g></g><g><g><path d="m210.794 502.001h-200.794v-72.505h492v72.505h-200.793" fill="#ddb9a3"/></g></g><g><g><g><path d="m350.623 10.486c-5.729-1.005-11.836.092-17.066 3.56s-8.618 8.667-9.922 14.335l-146.638 97.229 113.671 171.436 146.638-97.229c5.729 1.005 11.837-.092 17.067-3.56s8.618-8.667 9.922-14.335l.732-.485-.485-.731c1.005-5.729-.092-11.837-3.56-17.067s-8.667-8.618-14.335-9.922l-76.913-115.996c1.005-5.729-.092-11.837-3.56-17.067s-8.667-8.618-14.335-9.922l-.485-.731z" fill="#ff9c9b"/></g></g><g><g><g><path d="m308.536 100.638c22.971 4.654 36.04 35.832 36.04 35.832s-24.174 23.633-47.145 18.979-36.04-35.832-36.04-35.832 24.174-23.633 47.145-18.979z" fill="#faf7f5"/></g></g><g><g><path d="m364.87 185.599c4.654-22.971-18.978-47.145-18.978-47.145s-31.178 13.069-35.832 36.04 18.978 47.145 18.978 47.145 31.178-13.069 35.832-36.04z" fill="#faf7f5"/></g></g></g></g><g><g><path d="m187.971 224.913c0 15.162-20.907 27.454-20.907 27.454s-20.907-12.292-20.907-27.454c0-15.163 20.907-27.454 20.907-27.454s20.907 12.292 20.907 27.454z" fill="#fff2a0"/></g></g><g><g><path d="m251.225 308.155c0 15.163-20.907 27.454-20.907 27.454s-20.907-12.292-20.907-27.454 20.907-27.454 20.907-27.454 20.907 12.291 20.907 27.454z" fill="#fff2a0"/></g></g><g><g><path d="m146.157 349.537c0 15.163-20.907 27.454-20.907 27.454s-20.907-12.292-20.907-27.454 20.907-27.454 20.907-27.454 20.907 12.291 20.907 27.454z" fill="#fff7bf"/></g></g></g><g><g><path d="m482.105 366.991h-331.673c3.334-5.046 5.725-10.937 5.725-17.454 0-20.298-23.194-34.52-25.839-36.075-3.128-1.839-7.008-1.839-10.136 0-2.645 1.555-25.839 15.777-25.839 36.075 0 6.517 2.391 12.408 5.725 17.454h-70.172c-16.485 0-29.896 13.411-29.896 29.896v105.114c0 5.523 4.477 10 10 10h200.794c5.523 0 10-4.477 10-10s-4.477-10-10-10h-190.794v-52.505h472v52.505h-190.794c-5.523 0-10 4.477-10 10s4.477 10 10 10h200.794c5.522 0 10-4.477 10-10v-105.114c0-16.485-13.411-29.896-29.895-29.896zm-356.858-32.736c5.095 4.061 10.91 10.139 10.91 15.282 0 4.812-5.461 10.931-10.904 15.282-5.095-4.061-10.91-10.139-10.91-15.282 0-4.812 5.461-10.931 10.904-15.282zm-105.247 85.241v-22.609c0-5.457 4.439-9.896 9.895-9.896h452.209c5.456 0 9.896 4.439 9.896 9.896v22.609z"/><path d="m261.73 493.691c-3.621-2.416-8.523-2.171-11.893.582-3.097 2.53-4.378 6.809-3.216 10.627 1.266 4.161 5.203 7.099 9.56 7.1 4.111.001 7.9-2.626 9.35-6.468 1.613-4.273.046-9.327-3.801-11.841z"/><path d="m282.333 302.572c1.465 2.21 3.749 3.748 6.349 4.274.658.133 1.323.199 1.985.199 1.951 0 3.876-.571 5.526-1.665l143.64-95.241c7.09.334 14.079-1.579 20.063-5.548 6.298-4.175 10.934-10.263 13.285-17.366 1.629-2.297 2.217-5.195 1.61-7.945.598-7.458-1.303-14.871-5.478-21.169-3.971-5.986-9.67-10.471-16.323-12.919l-72.934-109.998c.336-7.083-1.578-14.078-5.547-20.065-4.175-6.297-10.264-10.933-17.366-13.285-2.297-1.63-5.199-2.217-7.946-1.61-7.462-.599-14.87 1.303-21.167 5.478-5.986 3.97-10.472 9.668-12.92 16.323l-143.64 95.24c-4.603 3.052-5.86 9.258-2.808 13.86zm46.828-265.857c2.135-1.416 3.645-3.597 4.219-6.093.781-3.394 2.807-6.322 5.702-8.242 2.897-1.92 6.383-2.648 9.813-2.045.117.02.235.039.353.056.115.031.232.06.349.087 3.395.781 6.322 2.807 8.243 5.704 1.92 2.896 2.646 6.381 2.044 9.81-.442 2.524.1 5.121 1.516 7.255l76.911 115.996c1.415 2.135 3.597 3.645 6.093 4.219 3.395.781 6.322 2.806 8.243 5.703 1.92 2.896 2.646 6.381 2.044 9.813-.021.116-.039.233-.055.35-.031.117-.062.235-.088.353-.781 3.395-2.807 6.322-5.703 8.243-2.897 1.92-6.382 2.645-9.813 2.044-2.521-.442-5.117.1-7.254 1.515l-138.303 91.703-102.618-154.769z"/><path d="m302.158 166.023c-.8 2.077-1.445 4.239-1.9 6.486-5.641 27.84 20.513 54.979 21.629 56.122 1.92 1.964 4.513 3.01 7.152 3.01 1.302 0 2.615-.254 3.864-.778 1.472-.617 36.126-15.436 41.767-43.277 5.292-26.121-17.402-51.623-21.148-55.618-2.22-5.002-16.878-35.838-43.001-41.13-27.837-5.641-54.979 20.512-56.121 21.628-2.933 2.867-3.818 7.234-2.232 11.017.617 1.473 15.436 36.127 43.277 41.768 2.248.454 4.489.701 6.713.772zm52.911 17.591c-2.279 11.251-14.674 20.546-23.509 25.582-6.186-8.085-13.979-21.468-11.7-32.715 2.276-11.236 14.64-20.522 23.474-25.562 5.628 7.336 14.143 20.811 11.735 32.695zm-81.215-61.44c7.337-5.63 20.821-14.139 32.695-11.735h.001c11.252 2.28 20.547 14.673 25.582 23.509-8.086 6.186-21.466 13.981-32.716 11.7-11.235-2.277-20.521-14.64-25.562-23.474z"/><path d="m161.996 260.988c1.564.919 3.316 1.379 5.068 1.379s3.504-.46 5.068-1.379c2.645-1.555 25.839-15.777 25.839-36.075s-23.194-34.52-25.839-36.075c-3.128-1.839-7.008-1.839-10.136 0-2.645 1.555-25.839 15.777-25.839 36.075s23.194 34.52 25.839 36.075zm5.065-51.356c5.095 4.061 10.91 10.139 10.91 15.282 0 4.812-5.461 10.931-10.904 15.282-5.095-4.061-10.91-10.139-10.91-15.282 0-4.813 5.462-10.931 10.904-15.282z"/><path d="m225.25 272.08c-2.645 1.555-25.839 15.777-25.839 36.075s23.194 34.52 25.839 36.075c1.564.919 3.316 1.379 5.068 1.379s3.504-.46 5.068-1.379c2.645-1.555 25.839-15.777 25.839-36.075s-23.194-34.52-25.839-36.075c-3.128-1.839-7.008-1.839-10.136 0zm5.071 51.357c-5.095-4.061-10.91-10.139-10.91-15.282 0-4.812 5.462-10.931 10.904-15.282 5.095 4.061 10.91 10.139 10.91 15.282 0 4.812-5.461 10.931-10.904 15.282z"/></g></g></g></svg>